<?xml version="1.0" standalone="no"?>
<!DOCTYPE svg PUBLIC "-//W3C//DTD SVG 20010904//EN"
 "http://www.w3.org/TR/2001/REC-SVG-20010904/DTD/svg10.dtd">
<svg version="1.0" xmlns="http://www.w3.org/2000/svg"
 width="1014.000000pt" height="958.000000pt" viewBox="0 0 1014.000000 958.000000"
 preserveAspectRatio="xMidYMid meet">

<g transform="translate(0.000000,958.000000) scale(0.100000,-0.100000)"
fill="#000000" stroke="none">
<path d="M7083 8400 c0 -25 2 -35 4 -22 2 12 2 32 0 45 -2 12 -4 2 -4 -23z"/>
<path d="M6884 7920 c-32 -28 -85 -74 -117 -103 -32 -29 -63 -53 -68 -55 -18
-7 -9 -22 14 -22 15 0 38 20 72 60 28 33 53 60 57 60 10 0 101 80 111 96 16
27 -11 13 -69 -36z"/>
<path d="M5468 7874 c-42 -8 -118 -30 -170 -49 l-93 -34 88 0 c63 -1 87 2 87
12 1 38 15 42 187 47 147 4 165 7 145 18 -35 20 -156 23 -244 6z"/>
<path d="M5760 7685 c9 -11 22 -14 41 -10 34 8 56 -3 72 -36 19 -36 62 -38 79
-2 19 39 44 41 63 4 15 -31 16 -31 100 -31 77 0 85 2 96 23 6 12 23 32 38 44
l26 22 -264 1 c-236 0 -262 -2 -251 -15z"/>
<path d="M6986 7475 c-4 -10 1 -15 14 -15 13 0 18 5 14 15 -4 8 -10 15 -14 15
-4 0 -10 -7 -14 -15z"/>
<path d="M5332 7241 c24 -44 47 -81 51 -81 4 0 7 35 5 78 l-3 77 -48 3 -48 3
43 -80z"/>
<path d="M5437 6980 c3 -11 7 -20 9 -20 2 0 4 9 4 20 0 11 -4 20 -9 20 -5 0
-7 -9 -4 -20z"/>
<path d="M5920 6370 c0 -5 5 -10 11 -10 5 0 7 5 4 10 -3 6 -8 10 -11 10 -2 0
-4 -4 -4 -10z"/>
</g>
</svg>
